HIERARCHY
ROOT Hips
{
	OFFSET 0.000000 0.000000 0.000000
	CHANNELS 6 Xposition Yposition Zposition Xrotation Yrotation Zrotation
	JOINT LeftUpLeg_virtual
	{
		OFFSET 0.000000 0.000000 0.000000
		CHANNELS 3 Xrotation Yrotation Zrotation
		JOINT LeftUpLeg
		{
			OFFSET 10.205400 -3.823500 0.155100
			CHANNELS 3 Xrotation Yrotation Zrotation
			JOINT LeftLeg
			{
				OFFSET 0.708757 -12.982077 0.567790
				CHANNELS 3 Xrotation Yrotation Zrotation
				JOINT LeftFoot
				{
					OFFSET -0.708756 -10.717838 -2.184338
					CHANNELS 3 Xrotation Yrotation Zrotation
					JOINT LeftToeBase
					{
						OFFSET 0.108149 -7.191104 7.560241
						CHANNELS 3 Xrotation Yrotation Zrotation
						JOINT LeftToe_End
						{
							OFFSET 0.070230 0.081724 4.490308
							CHANNELS 3 Xrotation Yrotation Zrotation
							End Site
							{
								OFFSET 0 0 0
							}
						}
					}
				}
			}
		}
	}
	JOINT RightUpLeg_virtual
	{
		OFFSET 0.000000 0.000000 0.000000
		CHANNELS 3 Xrotation Yrotation Zrotation
		JOINT RightUpLeg
		{
			OFFSET -10.205400 -3.823500 0.005500
			CHANNELS 3 Xrotation Yrotation Zrotation
			JOINT RightLeg
			{
				OFFSET -0.708756 -12.982134 0.610632
				CHANNELS 3 Xrotation Yrotation Zrotation
				JOINT RightFoot
				{
					OFFSET 0.708754 -10.717769 -1.945823
					CHANNELS 3 Xrotation Yrotation Zrotation
					JOINT RightToeBase
					{
						OFFSET -0.108140 -7.191069 7.372968
						CHANNELS 3 Xrotation Yrotation Zrotation
						JOINT RightToe_End
						{
							OFFSET -0.070227 0.081735 4.479403
							CHANNELS 3 Xrotation Yrotation Zrotation
							End Site
							{
								OFFSET 0 0 0
							}
						}
					}
				}
			}
		}
	}
	JOINT Spine_virtual
	{
		OFFSET 0.000000 0.000000 0.000000
		CHANNELS 3 Xrotation Yrotation Zrotation
		JOINT Spine
		{
			OFFSET 0.000000 6.876099 0.125700
			CHANNELS 3 Xrotation Yrotation Zrotation
			JOINT Spine1
			{
				OFFSET 0.000000 5.730043 0.104720
				CHANNELS 3 Xrotation Yrotation Zrotation
				JOINT Spine1_split
				{
					OFFSET 0.000000 5.730043 0.104720
					CHANNELS 3 Xrotation Yrotation Zrotation
					JOINT Spine2
					{
						OFFSET 0.000000 5.730043 0.104720
						CHANNELS 3 Xrotation Yrotation Zrotation
						JOINT Neck_virtual
						{
							OFFSET 0.000000 0.000000 0.000000
							CHANNELS 3 Xrotation Yrotation Zrotation
							JOINT Neck
							{
								OFFSET 0.000000 10.314075 0.188496
								CHANNELS 3 Xrotation Yrotation Zrotation
								JOINT Head
								{
									OFFSET 0.000000 7.643700 -2.377400
									CHANNELS 3 Xrotation Yrotation Zrotation
									JOINT HeadTop_End
									{
										OFFSET 0.000000 43.788605 -13.619600
										CHANNELS 3 Xrotation Yrotation Zrotation
										End Site
										{
											OFFSET 0 0 0
										}
									}
								}
							}
						}
						JOINT LeftShoulder_virtual
						{
							OFFSET 0.000000 0.000000 0.000000
							CHANNELS 3 Xrotation Yrotation Zrotation
							JOINT LeftShoulder
							{
								OFFSET 2.196100 4.412489 0.087492
								CHANNELS 3 Xrotation Yrotation Zrotation
								JOINT LeftShoulder_split
								{
									OFFSET 2.196100 4.412489 0.087492
									CHANNELS 3 Xrotation Yrotation Zrotation
									JOINT LeftArm
									{
										OFFSET 8.771219 -2.981674 -0.026999
										CHANNELS 3 Xrotation Yrotation Zrotation
										JOINT LeftForeArm
										{
											OFFSET 8.512804 0.000000 -0.000000
											CHANNELS 3 Xrotation Yrotation Zrotation
											JOINT LeftHand
											{
												OFFSET 18.484802 0.000000 -0.000000
												CHANNELS 3 Xrotation Yrotation Zrotation
												End Site
												{
													OFFSET 0 0 0
												}
											}
										}
									}
								}
							}
						}
						JOINT RightShoulder_virtual
						{
							OFFSET 0.000000 0.000000 0.000000
							CHANNELS 3 Xrotation Yrotation Zrotation
							JOINT RightShoulder
							{
								OFFSET -2.196100 4.412496 0.070690
								CHANNELS 3 Xrotation Yrotation Zrotation
								JOINT RightShoulder_split
								{
									OFFSET -2.196100 4.412496 0.070690
									CHANNELS 3 Xrotation Yrotation Zrotation
									JOINT RightArm
									{
										OFFSET -8.771282 -2.981682 -0.094208
										CHANNELS 3 Xrotation Yrotation Zrotation
										JOINT RightForeArm
										{
											OFFSET -8.494598 0.000000 0.000000
											CHANNELS 3 Xrotation Yrotation Zrotation
											JOINT RightHand
											{
												OFFSET -18.483803 0.000000 0.000001
												CHANNELS 3 Xrotation Yrotation Zrotation
												End Site
												{
													OFFSET 0 0 0
												}
											}
										}
									}
								}
							}
						}
					}
				}
			}
		}
	}
}
MOTION
Frames: 11
Frame Time: 0.03333333
1.084506 33.632935 -3.449469 0.000000 0.000000 0.000000 2.555542 11.707907 1.860330 -10.920033 18.145340 9.995933 19.198461 -6.068679 0.538796 -12.031532 -0.160535 -13.197516 0.537233 -3.613765 4.113321 0.000000 0.000000 0.000000 3.459256 14.197458 1.351451 -8.232986 -8.953977 -12.736966 12.046539 19.168135 3.870697 -15.965875 -9.105650 7.721490 7.528816 4.426964 -13.450060 0.000000 0.000000 0.000000 -1.118666 15.875096 1.583180 0.049294 0.843986 2.490340 1.858607 -1.487854 -0.515960 0.119489 0.239014 -0.134831 0.000000 0.000000 0.000000 2.219759 1.326297 -1.388427 -4.182734 7.225624 -1.907666 -2.886667 -20.757624 2.415394 0.000000 0.000000 0.000000 1.315954 -0.820893 -1.150529 -0.355935 0.582696 -12.122047 0.222908 -0.043420 -2.346965 5.282636 -16.798760 -61.950314 8.459004 -20.583835 3.561312 0.000000 0.000000 0.000000 2.238785 0.136834 -0.552763 -2.351956 -0.340081 14.989439 -3.915336 -1.245266 1.646543 9.464495 9.834899 63.871899 -6.835787 21.358391 2.022254 0.000000 0.000000 0.000000 
1.027429 33.683010 -3.396227 0.000000 0.000000 0.000000 2.773258 11.886277 1.919470 -11.254666 17.864566 9.737532 19.337389 -5.719871 0.744255 -11.474385 0.114432 -12.871270 0.586899 -3.544073 3.964645 0.000000 0.000000 0.000000 3.773878 14.180071 1.409357 -8.004414 -9.573004 -12.765455 11.646831 18.939922 3.770158 -15.392356 -8.919588 8.395276 6.552761 4.381627 -13.411814 0.000000 0.000000 0.000000 -0.870151 15.904024 1.498777 -0.160210 0.723755 2.414395 1.880666 -1.457253 -0.433479 0.124991 0.223507 -0.096317 0.000000 0.000000 0.000000 2.100109 1.440636 -1.337576 -3.780720 7.219047 -1.904393 -2.980294 -20.570076 2.063731 0.000000 0.000000 0.000000 1.288984 -0.731009 -1.076887 -0.349843 1.113803 -12.360123 1.424159 0.047071 -1.917395 4.684815 -17.603283 -61.747731 9.146648 -18.387117 3.492853 0.000000 0.000000 0.000000 2.228988 0.197349 -0.512995 -2.283893 -0.761385 15.179540 -2.892203 -0.599011 2.205086 9.693414 8.055051 64.033146 -6.768115 20.455295 2.223003 0.000000 0.000000 0.000000 
0.962793 33.718468 -3.405853 0.000000 0.000000 0.000000 3.292518 12.029523 1.840950 -11.841397 17.208546 9.479665 19.354053 -5.043228 1.033718 -10.985347 0.650414 -12.259425 0.771405 -3.449851 3.843901 0.000000 0.000000 0.000000 4.378507 14.525738 1.319928 -8.006190 -9.975150 -12.592992 11.406774 18.359374 3.606044 -15.295169 -9.048960 8.708168 6.080449 4.280167 -13.077900 0.000000 0.000000 0.000000 -0.070440 16.186374 1.243088 -0.463588 0.525809 2.227012 1.936406 -1.442257 -0.191764 0.114945 0.118305 -0.052265 0.000000 0.000000 0.000000 2.034176 1.515236 -1.081847 -3.447028 7.016833 -1.710469 -3.186783 -20.573430 1.088459 0.000000 0.000000 0.000000 1.277776 -0.672723 -0.857696 -0.289472 1.751306 -12.901744 1.950319 0.383977 -1.250483 3.573780 -19.345785 -61.101336 8.678532 -17.282795 3.078907 0.000000 0.000000 0.000000 2.283751 0.248373 -0.313288 -2.249028 -1.121568 15.545359 -2.777797 0.060553 2.121733 10.340802 7.142060 63.983484 -6.927849 20.113083 2.373250 0.000000 0.000000 0.000000 
0.913678 33.676685 -3.478579 0.000000 0.000000 0.000000 4.065273 12.212446 1.616706 -12.979356 16.148077 9.316883 19.757961 -4.244345 1.344377 -10.784611 1.260104 -11.688680 1.210683 -3.331448 3.721654 0.000000 0.000000 0.000000 5.182130 14.979624 1.108716 -8.718819 -10.188374 -12.385626 11.534440 17.574673 3.405331 -15.579397 -9.370561 8.813991 6.099201 4.154968 -12.643276 0.000000 0.000000 0.000000 1.147373 16.693775 0.884642 -0.759225 0.288627 2.008565 2.012793 -1.410613 0.122257 0.076156 -0.030451 -0.016651 0.000000 0.000000 0.000000 2.005048 1.550542 -0.702391 -3.320075 6.634296 -1.235009 -3.546409 -20.799704 -0.408545 0.000000 0.000000 0.000000 1.295892 -0.622760 -0.593809 -0.178507 2.195381 -13.479845 1.893510 0.869922 -0.683502 1.686370 -21.232401 -59.972667 7.325374 -18.393063 2.513744 0.000000 0.000000 0.000000 2.383428 0.299000 -0.047735 -2.272482 -1.297491 15.918891 -3.242868 0.769165 1.599374 10.673934 7.278055 63.438934 -7.312292 21.367265 2.479299 0.000000 0.000000 0.000000 
0.893136 33.499367 -3.622740 0.000000 0.000000 0.000000 5.110490 12.494821 1.283945 -15.172304 14.727469 9.323269 21.149367 -3.488465 1.615562 -11.024491 1.736171 -11.467437 1.840818 -3.208745 3.600260 0.000000 0.000000 0.000000 6.145444 15.378649 0.805122 -10.630605 -10.273913 -12.394304 12.721672 16.915129 3.166253 -15.983686 -9.635860 9.377306 5.975709 4.100663 -12.306485 0.000000 0.000000 0.000000 2.693868 17.367890 0.465986 -0.966109 0.058608 1.836256 2.077760 -1.347900 0.410633 0.050044 -0.143614 0.024275 0.000000 0.000000 0.000000 2.010187 1.579006 -0.325293 -3.500840 6.080314 -0.450350 -4.117959 -21.211436 -2.227148 0.000000 0.000000 0.000000 1.314081 -0.558739 -0.373505 -0.029340 2.262222 -13.815590 1.697848 1.262771 -0.109683 -1.157143 -22.560501 -58.569733 5.640104 -21.929601 1.941969 0.000000 0.000000 0.000000 2.511974 0.365100 0.176367 -2.394946 -1.238052 16.178770 -3.259744 1.175773 1.103016 9.922992 8.514375 62.078169 -7.888102 24.994133 2.630992 0.000000 0.000000 0.000000 
0.891276 33.126427 -3.858412 0.000000 0.000000 0.000000 6.366814 12.967652 0.875231 -18.673196 12.865091 9.532550 24.074595 -2.970149 1.758660 -11.716191 1.919140 -11.907543 2.172629 -3.107428 3.610153 0.000000 0.000000 0.000000 7.198014 15.644956 0.473167 -14.012607 -10.180240 -12.716227 15.617333 16.610298 2.825008 -16.405629 -9.698595 10.696842 5.443520 4.118689 -12.201458 0.000000 0.000000 0.000000 4.385736 18.032649 0.048521 -1.000130 -0.129601 1.763927 2.114790 -1.246149 0.578642 0.093620 -0.247577 0.049411 0.000000 0.000000 0.000000 2.048687 1.647782 -0.057718 -3.979030 5.456131 0.587425 -4.924782 -21.681490 -4.136610 0.000000 0.000000 0.000000 1.306613 -0.448414 -0.272913 0.121467 1.935313 -13.638948 1.584608 1.263919 0.277922 -5.756445 -23.350165 -57.377482 4.087541 -27.824157 1.399365 0.000000 0.000000 0.000000 2.637139 0.466703 0.266309 -2.621102 -0.921506 16.147698 -2.701336 1.783424 0.815623 7.364470 10.483595 59.818954 -8.614230 31.088152 2.907164 0.000000 0.000000 0.000000 
0.888424 32.525810 -4.156349 0.000000 0.000000 0.000000 7.780259 13.570053 0.453472 -23.424212 10.494236 9.851648 28.692354 -2.665171 1.783032 -12.839708 1.956798 -12.986980 2.056239 -3.004233 3.698994 0.000000 0.000000 0.000000 8.344348 15.706192 0.140970 -18.909700 -9.831793 -13.351078 20.641206 16.666338 2.326173 -17.138847 -9.629266 12.578094 4.824831 4.117870 -12.334616 0.000000 0.000000 0.000000 6.170772 18.605406 -0.356572 -0.848680 -0.258769 1.806894 2.137647 -1.121755 0.601563 0.133283 -0.323787 0.060815 0.000000 0.000000 0.000000 2.101284 1.748077 0.045345 -4.740337 4.825135 1.751732 -5.930328 -22.068640 -5.864966 0.000000 0.000000 0.000000 1.265606 -0.279830 -0.299307 0.229706 1.301630 -12.852755 1.627562 0.899498 0.119861 -12.538439 -24.032166 -56.688306 2.920433 -35.794491 0.934782 0.000000 0.000000 0.000000 2.729634 0.598503 0.210445 -2.920824 -0.356973 15.842994 -1.920983 2.293160 1.089246 2.534293 12.882544 56.719636 -9.536690 39.288273 3.511592 0.000000 0.000000 0.000000 
0.891429 31.685915 -4.509937 0.000000 0.000000 0.000000 9.262402 14.059662 0.054267 -29.100417 7.751317 10.178597 34.772746 -2.304961 1.693039 -14.525610 2.169931 -14.040077 1.767124 -2.885087 3.714998 0.000000 0.000000 0.000000 9.571779 15.634569 -0.176603 -25.135322 -9.184444 -14.181382 27.778161 16.923187 1.591298 -18.559294 -9.534776 14.425320 4.587069 4.047190 -12.616966 0.000000 0.000000 0.000000 7.993479 19.027833 -0.749576 -0.519857 -0.312643 1.936335 2.184744 -0.994455 0.514337 0.166004 -0.309045 0.038956 0.000000 0.000000 0.000000 2.154135 1.845491 -0.001728 -5.711578 4.274140 2.862368 -7.187612 -22.406606 -7.211722 0.000000 0.000000 0.000000 1.175609 -0.078681 -0.408275 0.284887 0.473942 -11.528454 1.427505 0.541529 -0.388616 -21.649517 -24.749520 -56.848532 2.059269 -44.238524 0.474739 0.000000 0.000000 0.000000 2.801009 0.730789 0.041866 -3.243860 0.446283 15.306891 -0.934641 2.211419 1.765420 -4.626070 15.398475 53.130795 -10.792980 48.334407 4.558189 0.000000 0.000000 0.000000 
0.914044 30.667416 -4.889292 0.000000 0.000000 0.000000 10.690924 14.296709 -0.291174 -35.148604 4.845764 10.464783 41.749975 -1.796353 1.463771 -16.661545 2.677095 -14.710779 1.636916 -2.737434 3.584900 0.000000 0.000000 0.000000 10.844356 15.407373 -0.453843 -32.197734 -8.194707 -15.054784 36.419696 17.155408 0.617432 -20.631300 -9.557375 15.760049 5.050892 3.893134 -12.999739 0.000000 0.000000 0.000000 9.804439 19.285338 -1.117055 -0.036703 -0.296226 2.121462 2.274896 -0.892650 0.371869 0.176479 -0.240246 0.028006 0.000000 0.000000 0.000000 2.228143 1.911960 -0.129417 -6.744515 3.875274 3.728605 -8.605535 -22.654638 -8.057750 0.000000 0.000000 0.000000 1.085148 0.107683 -0.546970 0.304235 -0.521112 -9.819699 1.461608 0.488417 -0.775922 -32.262392 -25.289651 -57.768893 1.198277 -51.463734 -0.146467 0.000000 0.000000 0.000000 2.883915 0.824130 -0.193315 -3.501334 1.423655 14.617884 -0.217317 1.721009 2.396594 -13.746913 17.829862 49.661421 -12.547758 56.722993 6.216226 0.000000 0.000000 0.000000 
0.958165 29.572479 -5.268270 0.000000 0.000000 0.000000 11.999476 14.273379 -0.541587 -41.181102 2.053754 10.695695 48.896477 -1.185349 1.075750 -18.961642 3.382324 -14.825395 1.947014 -2.567129 3.226543 0.000000 0.000000 0.000000 12.138469 15.117732 -0.656515 -39.387146 -7.032831 -15.882683 45.432981 17.251250 -0.523816 -22.845830 -9.700110 16.644345 5.971255 3.753107 -13.471154 0.000000 0.000000 0.000000 11.549322 19.353389 -1.443478 0.472031 -0.223676 2.324049 2.402962 -0.838683 0.230597 0.151793 -0.200216 0.012560 0.000000 0.000000 0.000000 2.321403 1.915896 -0.263316 -7.696436 3.594977 4.213357 -9.866253 -22.679729 -8.324463 0.000000 0.000000 0.000000 1.038318 0.238573 -0.669257 0.330265 -1.762873 -8.087440 1.608508 0.704065 -1.029555 -42.631589 -25.200540 -58.944375 0.054370 -56.426938 -1.045472 0.000000 0.000000 0.000000 3.043532 0.861886 -0.418589 -3.633516 2.543583 13.910922 0.210530 1.076874 2.705796 -23.766354 19.915157 46.911686 -14.733778 62.759945 8.379818 0.000000 0.000000 0.000000 
1.038154 28.509132 -5.601894 0.000000 0.000000 0.000000 13.183864 14.191531 -0.730455 -46.708061 -0.363816 10.886890 55.489492 -0.700098 0.551502 -21.041328 3.981691 -14.545945 2.403309 -2.424640 2.813952 0.000000 0.000000 0.000000 13.334660 14.730191 -0.739920 -46.049538 -5.874180 -16.552065 53.604332 17.327476 -1.790548 -24.641676 -9.858178 17.534629 6.761021 3.765418 -14.129364 0.000000 0.000000 0.000000 13.079220 19.287290 -1.689400 0.924037 -0.111171 2.506741 2.533459 -0.849969 0.136363 0.129802 -0.173413 -0.006747 0.000000 0.000000 0.000000 2.434120 1.851470 -0.345492 -8.397886 3.446940 4.271105 -10.669367 -22.632846 -8.006761 0.000000 0.000000 0.000000 1.041438 0.273107 -0.759831 0.399676 -3.180296 -6.696582 1.788367 0.984986 -1.009831 -51.317243 -24.298815 -59.854737 -1.521456 -58.941705 -2.237094 0.000000 0.000000 0.000000 3.300547 0.836786 -0.581452 -3.610543 3.789522 13.215632 0.129877 0.781953 2.841470 -33.428373 21.332902 45.258148 -16.721130 65.687971 10.466725 0.000000 0.000000 0.000000 
